<svg width="44" height="64" fill="none" xmlns="http://www.w3.org/2000/svg"><defs><clipPath id="a"><path transform="translate(12 22)" fill="#fff" fill-opacity="0" d="M0 0h20v20H0z"/></clipPath></defs><g clip-path="url(#a)"><path d="M21.89 41c-.29 0-.59-.1-.79-.41-5.4-6.09-6.71-7.5-7-7.89-.71-.9-1.1-2.1-1.1-3.3 0-3 2.39-5.4 5.5-5.4 1.29 0 2.5.5 3.5 1.3 1-.8 2.3-1.3 3.5-1.3 3 0 5.5 2.4 5.5 5.4 0 1.3-.5 2.5-1.3 3.4l-7 7.9c-.2.2-.4.3-.81.3Zm-6-9.5c.31.4 3.5 4 6.11 6.9l6.2-7c.5-.5.69-1.2.69-2 0-1.8-1.5-3.3-3.29-3.3-1 0-2 .5-2.71 1.3-.29.3-.59.4-.89.4-.3 0-.61-.2-.8-.4-.7-.8-1.7-1.3-2.7-1.3-1.8 0-3.3 1.5-3.3 3.3-.1.9.3 1.6.69 2.1Z" fill="#000"/></g><rect x="20" y="11" rx="10" width="20" height="20" fill="#7DB54F"/><path d="M26.53 24.26h-1.41V25h3.55v-.74H27.3v-6.38h-.35l-2.2 1.7.37.51 1.11-.8.4-.46-.1.58v4.85Zm7.23-3.59q.2-.56.2-1.09 0-.36-.12-.68-.09-.22-.23-.41-.06-.07-.13-.14l-.02-.02q-.22-.21-.53-.33-.33-.12-.76-.12-.56 0-1.04.17t-.82.47l.33.56q.25-.2.61-.35.26-.11.52-.14.11-.02.23-.02.49 0 .76.25.05.04.08.08.07.08.12.17.17.27.17.64 0 .42-.17.9-.15.46-.42.95-.26.48-.59.94-.33.47-.66.88-.33.41-.65.76-.31.34-.52.56v.3h3.97v-.74h-2.18l-.64.11v-.04l.5-.44q.39-.47.77-1.01.39-.53.71-1.09.31-.56.51-1.12Z" fill="#FFF" fill-rule="evenodd"/></svg>